<svg width="61" height="60" viewBox="0 0 61 60" fill="none" xmlns="http://www.w3.org/2000/svg">
<g clip-path="url(#clip0_30_966)">
<path d="M57.1268 21.2612C56.3351 18.8096 56.6726 15.1296 54.6148 12.2881C52.5408 9.4243 48.9337 8.61031 46.8968 7.12063C44.8814 5.64664 43.0064 2.4391 39.6163 1.33285C36.3218 0.257775 32.9529 1.71664 30.3408 1.71664C27.7291 1.71664 24.3604 0.257424 21.0653 1.33274C17.6758 2.43875 15.7993 5.64699 13.7852 7.12028C11.7505 8.6082 8.1407 9.42442 6.06707 12.2878C4.01102 15.1269 4.34512 18.8154 3.5548 21.2611C2.8027 23.5888 0.34082 26.3824 0.34082 30.0002C0.34082 33.6202 2.79988 36.4031 3.5548 38.7392C4.34652 41.1908 4.00902 44.8708 6.06684 47.7123C8.1407 50.5762 11.7477 51.3901 13.7848 52.8799C15.7998 54.3536 17.6752 57.5614 21.0653 58.6675C24.3576 59.7419 27.7318 58.2838 30.3408 58.2838C32.9463 58.2838 36.3283 59.7404 39.6163 58.6677C43.006 57.5616 44.8813 54.3541 46.8965 52.8801C48.9311 51.3922 52.5409 50.576 54.6146 47.7126C56.6707 44.8734 56.3364 41.1853 57.1268 38.7393C57.8789 36.4115 60.3408 33.6179 60.3408 30.0002C60.3408 26.3804 57.8823 23.5984 57.1268 21.2612ZM52.6666 37.2979C51.7437 40.1544 51.9855 43.3511 50.8183 44.9629C49.6354 46.5962 46.5277 47.3422 44.1297 49.0963C41.7579 50.8307 40.0956 53.5803 38.1623 54.2111C36.3332 54.8081 33.3524 53.596 30.3409 53.596C27.3074 53.596 24.3573 54.8107 22.5195 54.2111C20.5864 53.5803 18.9264 50.8326 16.5521 49.0961C14.1682 47.3527 11.0429 46.5914 9.86336 44.9627C8.69992 43.3563 8.93254 40.1374 8.01531 37.298C7.11625 34.5161 5.02832 32.1073 5.02832 30.0002C5.02832 27.8909 7.11438 25.4905 8.01508 22.7025C8.93793 19.8461 8.69617 16.6491 9.86336 15.0375C11.0455 13.4053 14.1556 12.6568 16.5521 10.9041C18.9313 9.16403 20.5832 6.42102 22.5193 5.78926C24.3468 5.19301 27.3373 6.40438 30.3407 6.40438C33.3797 6.40438 36.3224 5.18891 38.1621 5.78926C40.095 6.41996 41.7564 9.16871 44.1297 10.9043C46.5132 12.6477 49.6388 13.409 50.8183 15.0376C51.982 16.6443 51.748 19.86 52.6663 22.7022V22.7023C53.5654 25.4843 55.6533 27.8931 55.6533 30.0002C55.6533 32.1095 53.5673 34.5099 52.6666 37.2979ZM41.1388 22.4773C42.0542 23.3927 42.0542 24.8766 41.1388 25.7919L29.4077 37.523C28.4923 38.4384 27.0082 38.4383 26.093 37.523L19.5429 30.973C18.6276 30.0576 18.6275 28.5737 19.5428 27.6584C20.4582 26.7432 21.9423 26.7431 22.8573 27.6584L27.7503 32.5513L37.8241 22.4775C38.7394 21.5621 40.2235 21.5621 41.1388 22.4773Z" fill="#3A3A3A"/>
</g>
<defs>
<clipPath id="clip0_30_966">
<rect width="60" height="60" fill="white" transform="translate(0.34082)"/>
</clipPath>
</defs>
</svg>
