<svg width="26" height="23" viewBox="0 0 26 23" fill="none" xmlns="http://www.w3.org/2000/svg">
<path d="M24.2428 16.1926H7.95957L8.77715 14.5273L22.3615 14.5027C22.8209 14.5027 23.2146 14.1746 23.2967 13.7207L25.1779 3.19062C25.2271 2.91445 25.1533 2.63008 24.9728 2.41406C24.8837 2.30775 24.7724 2.22211 24.6468 2.16309C24.5212 2.10407 24.3843 2.07308 24.2455 2.07227L6.96426 2.01484L6.8166 1.32031C6.72363 0.877344 6.32441 0.554688 5.87051 0.554688H1.6459C1.3899 0.554688 1.14439 0.656381 0.963375 0.837398C0.782358 1.01841 0.680664 1.26393 0.680664 1.51992C0.680664 1.77592 0.782358 2.02143 0.963375 2.20245C1.14439 2.38346 1.3899 2.48516 1.6459 2.48516H5.08848L5.73379 5.55312L7.32246 13.2449L5.27715 16.5836C5.17093 16.727 5.10696 16.8972 5.09246 17.075C5.07796 17.2528 5.11352 17.4312 5.19512 17.5898C5.35918 17.9152 5.69004 18.1203 6.05644 18.1203H7.77363C7.40755 18.6065 7.20982 19.1988 7.21035 19.8074C7.21035 21.3551 8.46816 22.6129 10.0158 22.6129C11.5635 22.6129 12.8213 21.3551 12.8213 19.8074C12.8213 19.1977 12.6189 18.6043 12.258 18.1203H16.6631C16.297 18.6065 16.0993 19.1988 16.0998 19.8074C16.0998 21.3551 17.3576 22.6129 18.9053 22.6129C20.4529 22.6129 21.7107 21.3551 21.7107 19.8074C21.7107 19.1977 21.5084 18.6043 21.1475 18.1203H24.2455C24.776 18.1203 25.2107 17.6883 25.2107 17.1551C25.2092 16.8994 25.1065 16.6546 24.9251 16.4743C24.7438 16.294 24.4985 16.1927 24.2428 16.1926ZM7.36621 3.91797L23.1107 3.96992L21.5686 12.6051L9.20098 12.627L7.36621 3.91797ZM10.0158 20.6715C9.54004 20.6715 9.15176 20.2832 9.15176 19.8074C9.15176 19.3316 9.54004 18.9434 10.0158 18.9434C10.4916 18.9434 10.8799 19.3316 10.8799 19.8074C10.8799 20.0366 10.7888 20.2564 10.6268 20.4184C10.4648 20.5805 10.245 20.6715 10.0158 20.6715ZM18.9053 20.6715C18.4295 20.6715 18.0412 20.2832 18.0412 19.8074C18.0412 19.3316 18.4295 18.9434 18.9053 18.9434C19.3811 18.9434 19.7693 19.3316 19.7693 19.8074C19.7693 20.0366 19.6783 20.2564 19.5163 20.4184C19.3542 20.5805 19.1344 20.6715 18.9053 20.6715Z" fill="#3A3A3A"/>
</svg>
