<svg width="18" height="20" viewBox="0 0 18 20" fill="none" xmlns="http://www.w3.org/2000/svg">
<path d="M9.1875 1.6875C9.97486 1.6875 10.73 2.00028 11.2867 2.55703C11.8435 3.11378 12.1562 3.86889 12.1562 4.65625V5.25H6.21875V4.65625C6.21875 3.86889 6.53153 3.11378 7.08828 2.55703C7.64503 2.00028 8.40014 1.6875 9.1875 1.6875ZM13.3438 5.25V4.65625C13.3438 3.55394 12.9059 2.49679 12.1264 1.71734C11.347 0.937889 10.2898 0.5 9.1875 0.5C8.08519 0.5 7.02804 0.937889 6.24859 1.71734C5.46914 2.49679 5.03125 3.55394 5.03125 4.65625V5.25H0.875V17.125C0.875 17.7549 1.12522 18.359 1.57062 18.8044C2.01602 19.2498 2.62011 19.5 3.25 19.5H15.125C15.7549 19.5 16.359 19.2498 16.8044 18.8044C17.2498 18.359 17.5 17.7549 17.5 17.125V5.25H13.3438ZM2.0625 6.4375H16.3125V17.125C16.3125 17.4399 16.1874 17.742 15.9647 17.9647C15.742 18.1874 15.4399 18.3125 15.125 18.3125H3.25C2.93506 18.3125 2.63301 18.1874 2.41031 17.9647C2.18761 17.742 2.0625 17.4399 2.0625 17.125V6.4375Z" fill="#ACACAC"/>
</svg>
