<svg width="24" height="20" viewBox="0 0 24 20" fill="none" xmlns="http://www.w3.org/2000/svg">
<path d="M21.3408 9.99996V4.16663H23.6742V11.1666H21.3408M21.3408 15.8333H23.6742V13.5H21.3408M9.67415 11.1666C12.7892 11.1666 19.0075 12.73 19.0075 15.8333V19.3333H0.34082V15.8333C0.34082 12.73 6.55915 11.1666 9.67415 11.1666ZM9.67415 0.666626C10.9118 0.666626 12.0988 1.15829 12.974 2.03346C13.8492 2.90863 14.3408 4.09562 14.3408 5.33329C14.3408 6.57097 13.8492 7.75795 12.974 8.63312C12.0988 9.50829 10.9118 9.99996 9.67415 9.99996C8.43648 9.99996 7.24949 9.50829 6.37432 8.63312C5.49915 7.75795 5.00749 6.57097 5.00749 5.33329C5.00749 4.09562 5.49915 2.90863 6.37432 2.03346C7.24949 1.15829 8.43648 0.666626 9.67415 0.666626ZM9.67415 13.3833C6.20915 13.3833 2.55749 15.0866 2.55749 15.8333V17.1166H16.7908V15.8333C16.7908 15.0866 13.1392 13.3833 9.67415 13.3833ZM9.67415 2.88329C9.02437 2.88329 8.40121 3.14142 7.94174 3.60088C7.48228 4.06034 7.22415 4.68351 7.22415 5.33329C7.22415 5.98307 7.48228 6.60624 7.94174 7.0657C8.40121 7.52517 9.02437 7.78329 9.67415 7.78329C10.3239 7.78329 10.9471 7.52517 11.4066 7.0657C11.866 6.60624 12.1242 5.98307 12.1242 5.33329C12.1242 4.68351 11.866 4.06034 11.4066 3.60088C10.9471 3.14142 10.3239 2.88329 9.67415 2.88329Z" fill="#3A3A3A"/>
</svg>
