<svg width="23" height="28" viewBox="0 0 23 28" fill="none" xmlns="http://www.w3.org/2000/svg">
<path d="M11.5068 0C8.59052 0.0033903 5.79463 1.1465 3.73247 3.17859C1.67032 5.21067 0.510288 7.96579 0.506848 10.8396C0.503355 13.1881 1.28183 15.4728 2.72285 17.3433C2.72285 17.3433 3.02285 17.7326 3.07185 17.7887L11.5068 27.5917L19.9458 17.7838C19.9898 17.7316 20.2908 17.3433 20.2908 17.3433L20.2918 17.3404C21.7322 15.4707 22.5103 13.187 22.5068 10.8396C22.5034 7.96579 21.3434 5.21067 19.2812 3.17859C17.2191 1.1465 14.4232 0.0033903 11.5068 0ZM11.5068 14.7813C10.7157 14.7813 9.94236 14.5501 9.28457 14.117C8.62677 13.6838 8.11408 13.0682 7.81133 12.348C7.50858 11.6277 7.42937 10.8352 7.58371 10.0706C7.73805 9.30599 8.11901 8.60366 8.67842 8.0524C9.23783 7.50115 9.95056 7.12574 10.7265 6.97365C11.5024 6.82156 12.3067 6.89962 13.0376 7.19796C13.7685 7.49629 14.3932 8.00151 14.8327 8.64971C15.2723 9.29792 15.5068 10.06 15.5068 10.8396C15.5055 11.8846 15.0837 12.8864 14.3338 13.6253C13.584 14.3642 12.5673 14.7799 11.5068 14.7813Z" fill="#3A3A3A"/>
</svg>
