<svg width="24" height="23" viewBox="0 0 24 23" fill="none" xmlns="http://www.w3.org/2000/svg">
<path d="M23.5068 11.5C23.5068 14.55 22.2952 17.4751 20.1386 19.6317C17.9819 21.7884 15.0568 23 12.0068 23C8.95685 23 6.03178 21.7884 3.87511 19.6317C1.71844 17.4751 0.506836 14.55 0.506836 11.5C0.506836 8.45001 1.71844 5.52494 3.87511 3.36827C6.03178 1.2116 8.95685 0 12.0068 0C15.0568 0 17.9819 1.2116 20.1386 3.36827C22.2952 5.52494 23.5068 8.45001 23.5068 11.5ZM12.0068 5.03125C12.0068 4.84063 11.9311 4.65781 11.7963 4.52302C11.6615 4.38823 11.4787 4.3125 11.2881 4.3125C11.0975 4.3125 10.9146 4.38823 10.7799 4.52302C10.6451 4.65781 10.5693 4.84063 10.5693 5.03125V12.9375C10.5694 13.0642 10.6029 13.1886 10.6665 13.2982C10.7301 13.4077 10.8216 13.4985 10.9316 13.5614L15.9628 16.4364C16.1279 16.5256 16.3214 16.5467 16.5019 16.4952C16.6823 16.4437 16.8355 16.3236 16.9286 16.1607C17.0217 15.9977 17.0474 15.8048 17.0002 15.6232C16.9529 15.4415 16.8365 15.2856 16.6758 15.1886L12.0068 12.5206V5.03125Z" fill="#3A3A3A"/>
</svg>
