<svg width="23" height="24" viewBox="0 0 23 24" fill="none" xmlns="http://www.w3.org/2000/svg">
<path d="M22.1159 18.425L17.0347 13.805C16.7945 13.5867 16.4789 13.4703 16.1544 13.4803C15.83 13.4903 15.5222 13.626 15.2959 13.8587L12.3047 16.935C11.5847 16.7975 10.1372 16.3462 8.64719 14.86C7.15719 13.3687 6.70594 11.9175 6.57219 11.2025L9.64594 8.20999C9.87895 7.9839 10.0149 7.67602 10.0249 7.3515C10.0349 7.02698 9.91829 6.71129 9.69969 6.47124L5.08094 1.39124C4.86224 1.15044 4.55829 1.00437 4.23363 0.984068C3.90897 0.963762 3.58919 1.07082 3.34219 1.28249L0.629689 3.60874C0.413577 3.82564 0.284588 4.11431 0.267188 4.41999C0.248438 4.73249 -0.109061 12.135 5.63094 17.8775C10.6384 22.8837 16.9109 23.25 18.6384 23.25C18.8909 23.25 19.0459 23.2425 19.0872 23.24C19.3928 23.2229 19.6813 23.0933 19.8972 22.8762L22.2222 20.1625C22.4347 19.9163 22.5425 19.5968 22.5227 19.2721C22.5028 18.9475 22.3569 18.6435 22.1159 18.425Z" fill="#3A3A3A"/>
</svg>
