<svg width="60" height="60" viewBox="0 0 60 60" fill="none" xmlns="http://www.w3.org/2000/svg">
<g clip-path="url(#clip0_30_980)">
<path d="M54.7009 23.9628C54.3065 10.6824 43.3814 -2.28882e-05 30.0072 -2.28882e-05C16.633 -2.28882e-05 5.70792 10.6824 5.31344 23.9628L3.53662 25.7396V37.7897L5.30133 39.5545V47.7647C5.30133 52.5652 9.20674 56.4706 14.0072 56.4706H16.1931C16.9216 58.5246 18.8831 60 21.1837 60H24.7131C27.0152 60 28.9778 58.5224 29.7051 56.4663C29.8059 56.4681 29.907 56.4706 30.0072 56.4706C38.5293 56.4706 45.6599 50.3981 47.2994 42.3529H51.9146L56.4778 37.7897V25.7396L54.7009 23.9628ZM30.0072 3.52939C40.4814 3.52939 49.2026 11.174 50.8879 21.1764H47.2994C45.6599 13.1313 38.5293 7.0588 30.0072 7.0588C21.4851 7.0588 14.3545 13.1313 12.715 21.1764H9.1265C10.8118 11.174 19.533 3.52939 30.0072 3.52939ZM43.6782 21.1764C37.9736 21.1594 33.9442 21.5068 30.622 16.6506L29.0089 14.2926L27.6225 16.7907C25.6025 20.4306 22.8822 21.1764 19.419 21.1764H16.3363C17.9074 15.0943 23.441 10.5882 30.0072 10.5882C36.5734 10.5882 42.107 15.0943 43.6782 21.1764ZM12.3602 38.8235H9.56168L7.06603 36.3279V27.2015L9.56168 24.7059H12.3602V38.8235ZM8.83074 47.7647V42.3529H12.7116C13.3759 45.6441 14.9654 48.6652 17.3203 51.0916C16.8266 51.619 16.4394 52.2467 16.1931 52.9412H14.0072C11.1529 52.9412 8.83074 50.619 8.83074 47.7647ZM24.7131 56.4706H21.1837C20.2105 56.4706 19.419 55.679 19.419 54.7059C19.419 53.7328 20.2105 52.9412 21.1837 52.9412H24.7131C25.6862 52.9412 26.4778 53.7328 26.4778 54.7059C26.4778 55.679 25.6862 56.4706 24.7131 56.4706ZM44.1249 38.8235C44.1249 46.608 37.7917 52.9412 30.0072 52.9412C29.906 52.9412 29.804 52.9392 29.7022 52.9368C28.9725 50.885 27.012 49.4117 24.7131 49.4117C21.0896 49.4197 21.1473 49.3936 20.6957 49.4352C17.6319 46.7497 15.8896 42.9248 15.8896 38.8235V24.7059H19.419C22.5422 24.7059 26.3457 24.1909 29.2899 20.6076C33.1746 24.6786 37.9219 24.7059 42.1834 24.7059H44.1249V38.8235ZM52.9484 36.3279L50.4527 38.8235H47.6543V24.7059H50.4527L52.9484 27.2015V36.3279Z" fill="#3A3A3A"/>
</g>
<defs>
<clipPath id="clip0_30_980">
<rect width="60" height="60" fill="white" transform="translate(0.00732422)"/>
</clipPath>
</defs>
</svg>
