<svg width="61" height="60" viewBox="0 0 61 60" fill="none" xmlns="http://www.w3.org/2000/svg">
<g clip-path="url(#clip0_30_974)">
<path d="M56.0218 31.102V3.77971C56.0218 2.80497 55.2315 2.01472 54.2568 2.01472H6.96894C5.99419 2.01472 5.20395 2.80497 5.20395 3.77971V33.2801C4.35252 33.4041 3.52015 33.7346 2.78379 34.2813C0.46248 35.9274 -0.0865496 39.611 1.85788 41.8828L9.80775 51.5205C14.7288 57.2798 19.9563 57.9855 27.7277 57.9855C34.3966 57.9855 37.3782 58.0149 43.1903 56.6906L48.8498 55.3369C49.7675 56.6184 51.2243 57.4486 52.8621 57.4486H55.6501C58.4201 57.4486 60.6738 55.0744 60.6738 52.1562V36.3785C60.6739 33.592 58.6188 31.3032 56.0218 31.102ZM48.0885 34.7327L45.7368 33.5383C41.8702 31.5865 37.3997 31.5143 33.472 33.3403C32.4004 33.7618 30.0632 35.1759 28.8509 35.1286H20.6906C17.9838 35.1286 15.7815 37.3308 15.7815 40.0377V41.3248C15.7664 41.3088 15.7505 41.2936 15.7355 41.2774L9.90812 34.952C9.55547 34.5693 9.15929 34.249 8.73405 33.992V16.4811H23.1779V22.951C23.1779 23.9258 23.9681 24.716 24.9429 24.716H36.0801C37.0548 24.716 37.8451 23.9258 37.8451 22.951V16.4811H52.4919V31.1019C50.4297 31.2612 48.7101 32.7365 48.0885 34.7327ZM26.7078 16.4811H34.315V21.186H26.7078V16.4811ZM52.4918 12.9511H37.8451V5.5447H52.4919V12.9511H52.4918ZM34.3151 5.5447V12.9512H26.7079V5.5447H34.3151ZM23.1778 5.5447V12.9512H8.73393V5.5447H23.1778ZM42.3711 53.2568C37.002 54.4866 33.7684 54.4368 27.791 54.4368C20.4957 54.4368 16.9708 54.3189 12.531 49.2741L4.58114 39.6364C3.19833 37.8358 5.70297 35.7101 7.31193 37.3436L13.1393 43.6691C14.6795 45.2942 16.6175 46.1885 19.0063 46.2411H35.1628C36.1375 46.2411 36.9278 45.4509 36.9278 44.4761C36.9278 43.5014 36.1375 42.7112 35.1628 42.7112H19.3114V40.0374C19.3114 39.2771 19.93 38.6584 20.6904 38.6584H28.8508C30.6892 38.7901 33.3427 37.255 34.9601 36.5411C37.9018 35.1734 41.2501 35.2275 44.1422 36.6872L47.8386 38.5647V51.949L42.3711 53.2568ZM57.1439 52.1561C57.1439 53.1279 56.4738 53.9185 55.6502 53.9185H52.8622C52.0385 53.9185 51.3685 53.1279 51.3685 52.1561V36.3785C51.3685 35.4067 52.0387 34.616 52.8622 34.616H55.6502C56.4738 34.616 57.1439 35.4066 57.1439 36.3785V52.1561Z" fill="#3A3A3A"/>
</g>
<defs>
<clipPath id="clip0_30_974">
<rect width="60" height="60" fill="white" transform="translate(0.673828)"/>
</clipPath>
</defs>
</svg>
