<svg width="25" height="24" viewBox="0 0 25 24" fill="none" xmlns="http://www.w3.org/2000/svg">
<rect x="1" y="0.5" width="23" height="23" rx="3.5" fill="white"/>
<rect x="1" y="0.5" width="23" height="23" rx="3.5" stroke="#D1D1D1"/>
<path d="M8.5 5C6.2912 5 4.5 6.7728 4.5 8.96C4.5 10.7256 5.2 14.916 12.0904 19.152C12.2138 19.2271 12.3555 19.2668 12.5 19.2668C12.6445 19.2668 12.7862 19.2271 12.9096 19.152C19.8 14.916 20.5 10.7256 20.5 8.96C20.5 6.7728 18.7088 5 16.5 5C14.2912 5 12.5 7.4 12.5 7.4C12.5 7.4 10.7088 5 8.5 5Z" fill="#FF4545" stroke="#3A3A3A" stroke-width="1.5" stroke-linecap="round" stroke-linejoin="round"/>
</svg>
